#!OML:ASF I:\golf\golf\golf 2\Subject 1\2002-09-07\Subject1.ASF
:FULLY-SPECIFIED
:DEGREES
457
root -10.3456 18.0185 4.46071 -151.704 75.203 -169.293
lowerback 2.72248 1.90367 -0.475302
upperback 4.18459 2.62189 4.21029
thorax 2.56619 1.30167 4.60482
lowerneck -13.3924 6.34808 5.74387
upperneck 33.2864 13.7657 -11.4173
head 15.1459 5.72134 -3.21261
rclavicle -3.97569e-016 5.08889e-014
rhumerus -16.2965 22.4086 -98.8
rradius 48.6586
rwrist -51.4388
rhand -33.7582 -10.0008
rfingers 7.12502
rthumb -6.94612 -39.8668
lclavicle -3.97569e-016 5.08889e-014
lhumerus -9.49376 -47.6596 105.981
lradius 42.6326
lwrist 50.9069
lhand -6.62456 63.5738
lfingers 7.12502
lthumb -160.768 87.3572
rfemur -23.9992 -9.16322 16.8206
rtibia 26.132
rfoot -11.2854 -17.6623
rtoes -2.09302
lfemur -32.3428 0.791485 -10.6295
ltibia 22.4099
lfoot -7.25908 -17.0423
ltoes -6.9132
458
root -10.3426 18.0187 4.45787 -151.591 75.2585 -169.142
lowerback 2.75147 1.95156 -0.477208
upperback 4.14871 2.68543 4.16946
thorax 2.50906 1.33416 4.55993
lowerneck -13.2377 6.38598 5.85025
upperneck 33.0748 13.7901 -11.53
head 15.0331 5.74216 -3.27338
rclavicle -2.74323e-014 -1.74931e-014
rhumerus -16.3461 22.2513 -98.8401
rradius 48.6628
rwrist -51.3459
rhand -34.0002 -10.0808
rfingers 7.12502
rthumb -7.1798 -39.939
lclavicle -2.74323e-014 -1.74931e-014
lhumerus -9.64294 -47.7328 106.062
lradius 42.6803
lwrist 50.9699
lhand -6.70969 63.6368
lfingers 7.12502
lthumb -160.85 87.286
rfemur -23.9701 -9.14002 16.8216
rtibia 26.1606
rfoot -11.3547 -17.5563
rtoes -1.7962
lfemur -32.2831 0.736371 -10.5808
ltibia 22.4458
lfoot -7.29025 -16.8923
ltoes -6.78483
459
root -10.3411 18.0178 4.45455 -151.579 75.2059 -169.128
lowerback 2.74994 1.96048 -0.463595
upperback 4.1082 2.69691 4.14665
thorax 2.46849 1.34076 4.52689
lowerneck -13.0748 6.39788 5.9061
upperneck 32.8321 13.7581 -11.5933
head 14.8873 5.73847 -3.31484
rclavicle -2.06736e-014 -7.63333e-014
rhumerus -16.3941 22.1165 -98.8429
rradius 48.6928
rwrist -51.3152
rhand -34.0131 -10.0408
rfingers 7.12502
rthumb -7.19216 -39.8986
lclavicle -2.06736e-014 -7.63333e-014
lhumerus -9.7276 -47.7833 106.136
lradius 42.689
lwrist 50.975
lhand -6.9541 63.7316
lfingers 7.12502
lthumb -161.085 87.1681
rfemur -23.9638 -9.14869 16.8371
rtibia 26.1855
rfoot -11.3226 -17.5748
rtoes -1.81879
lfemur -32.3121 0.761438 -10.5859
ltibia 22.4848
lfoot -7.25415 -16.9572
ltoes -6.59408
460
root -10.3393 18.0159 4.45179 -151.749 75.1663 -169.271
lowerback 2.76073 1.98752 -0.444334
upperback 4.07934 2.73208 4.07413
thorax 2.43363 1.35935 4.43834
lowerneck -13.0996 6.37795 5.97596
upperneck 32.7929 13.6815 -11.5645
head 14.8666 5.71588 -3.3276
rclavicle -1.78906e-014 -2.46493e-014
rhumerus -16.4278 21.8998 -98.8795
rradius 48.7226
rwrist -51.414
rhand -33.9392 -9.99689
rfingers 7.12502
rthumb -7.12088 -39.8571
lclavicle -1.78906e-014 -2.46493e-014
lhumerus -9.8335 -48.0242 106.169
lradius 42.7216
lwrist 51.0346
lhand -7.11829 63.9756
lfingers 7.12502
lthumb -161.243 86.9087
rfemur -23.9331 -9.18587 16.8167
rtibia 26.217
rfoot -11.2117 -17.6424
rtoes -2.25452
lfemur -32.3063 0.810778 -10.6501
ltibia 22.519
lfoot -7.29779 -17.1011
ltoes -6.6685
461
root -10.3358 18.0145 4.45285 -151.655 75.2997 -169.094
lowerback 2.8055 2.07535 -0.502481
upperback 4.07597 2.84827 4.01869
thorax 2.39566 1.41643 4.40961
lowerneck -13.1442 6.37345 6.07074
upperneck 32.7586 13.6662 -11.6365
head 14.8743 5.71098 -3.37446
rclavicle -1.43125e-014 -5.24792e-014
rhumerus -16.4214 21.6738 -98.9164
rradius 48.6822
rwrist -51.4488
rhand -33.8392 -10.1145
rfingers 7.12502
rthumb -7.02437 -39.9779
lclavicle -1.43125e-014 -5.24792e-014
lhumerus -9.93218 -48.2678 106.19
lradius 42.7442
lwrist 51.0234
lhand -6.98348 64.1271
lfingers 7.12502
lthumb -161.113 86.7698
rfemur -23.8696 -9.11524 16.8027
rtibia 26.2389
rfoot -11.2043 -17.5805
rtoes -2.22559
lfemur -32.1881 0.904169 -10.6541
ltibia 22.5631
lfoot -7.44854 -17.0681
ltoes -6.96721
462
root -10.3353 18.0116 4.44607 -152.035 75.0535 -169.502
lowerback 2.76962 1.96932 -0.426642
upperback 4.03623 2.70674 4.00076
thorax 2.38988 1.34768 4.35023
lowerneck -13.137 6.41691 6.10801
upperneck 32.65 13.7534 -11.7805
head 14.8525 5.73816 -3.42171
rclavicle 4.09496e-014 -2.62396e-014
rhumerus -16.4557 21.6658 -98.9399
rradius 48.6783
rwrist -51.3634
rhand -33.7056 -10.3933
rfingers 7.12502
rthumb -6.89537 -40.261
lclavicle 4.09496e-014 -2.62396e-014
lhumerus -9.91326 -48.2372 106.186
lradius 42.6548
lwrist 50.9245
lhand -6.75638 64.0507
lfingers 7.12502
lthumb -160.895 86.8676
rfemur -23.858 -9.26391 16.7699
rtibia 26.2874
rfoot -11.4068 -17.6299
rtoes -1.51322
lfemur -32.2749 0.620601 -10.6364
ltibia 22.566
lfoot -7.36009 -17.0727
ltoes -6.76466
463
root -10.3311 18.0124 4.45072 -151.378 75.4235 -168.761
lowerback 2.84538 2.17432 -0.491119
upperback 4.04668 2.97915 3.91497
thorax 2.33806 1.48301 4.29027
lowerneck -13.3096 6.42209 6.22095
upperneck 32.7205 13.7216 -11.7446
head 14.9264 5.7313 -3.42866
rclavicle -3.93594e-014 2.38542e-015
rhumerus -16.5382 21.4361 -98.981
rradius 48.8359
rwrist -51.3267
rhand -33.6716 -10.5649
rfingers 7.12502
rthumb -6.86261 -40.4337
lclavicle -3.93594e-014 2.38542e-015
lhumerus -9.90863 -48.4853 106.143
lradius 42.5621
lwrist 50.8749
lhand -6.50954 63.9596
lfingers 7.12502
lthumb -160.658 86.9824
rfemur -23.8519 -8.84581 16.7833
rtibia 26.3199
rfoot -11.4238 -17.6492
rtoes -1.7177
lfemur -32.0751 0.919875 -10.587
ltibia 22.5505
lfoot -7.48565 -16.9054
ltoes -7.25005
